<svg width="160" height="160" viewBox="0 0 160 160" fill="none" xmlns="http://www.w3.org/2000/svg">
<path d="M80 38.6209C87.4207 43.9929 94.966 50.4115 102.277 57.7225C109.589 65.0337 116.007 72.5793 121.379 80.0007M80 38.6209C72.5793 43.9929 65.0339 50.4115 57.7229 57.7225C50.4117 65.0338 43.993 72.5793 38.6209 80.0007M80 38.6209C103.799 21.3919 126.315 14.9272 135.694 24.3063C145.073 33.6854 138.608 56.2009 121.379 80.0007M121.379 80.0007C138.608 103.799 145.072 126.315 135.693 135.694C128.739 142.647 114.565 140.892 98 132.498M121.379 80.0007C116.007 87.4213 109.589 94.9667 102.278 102.277C94.9667 109.589 87.4207 116.007 80 121.379M38.6209 80.0007C43.9929 87.4213 50.4113 94.9667 57.7223 102.277C65.0335 109.589 72.5793 116.007 80 121.379M38.6209 80.0007C21.3923 103.799 14.9278 126.315 24.3068 135.694C33.6858 145.073 56.2009 138.608 80 121.379M38.6209 80.0007C21.3919 56.2009 14.9271 33.6853 24.3062 24.3062C31.26 17.3524 45.4347 19.1079 62 27.5025" stroke="#FFA500" stroke-width="6" stroke-linecap="round"/>
<path d="M80 93.3333C87.3638 93.3333 93.3334 87.3638 93.3334 80C93.3334 72.6362 87.3638 66.6666 80 66.6666C72.6362 66.6666 66.6667 72.6362 66.6667 80C66.6667 87.3638 72.6362 93.3333 80 93.3333Z" stroke="#FFA500" stroke-width="6"/>
</svg>
